<svg width="1444" height="1865" viewBox="0 0 1444 1865" xmlns="http://www.w3.org/2000/svg" xmlns:xlink="http://www.w3.org/1999/xlink"><title>Group 6 Copy</title><defs><ellipse id="a" cx="752.615" cy="938.328" rx="509.615" ry="498.328"/><mask id="c" x="0" y="0" width="1019.23" height="996.657" fill="white"><use xlink:href="#a"/></mask><path d="M673.03 441.868h153.4l317.184 805.284H989.06l-77.278-213.164H583.065l-77.277 213.164H357l316.03-805.284zm-50.75 484.975h251.44l-123.413-346.25h-3.46L622.28 926.843z" id="b"/><filter x="-50%" y="-50%" width="200%" height="200%" filterUnits="objectBoundingBox" id="d"><feMorphology radius="5" operator="dilate" in="SourceAlpha" result="shadowSpreadOuter1"/><feOffset dy="15" in="shadowSpreadOuter1" result="shadowOffsetOuter1"/><feGaussianBlur stdDeviation="20" in="shadowOffsetOuter1" result="shadowBlurOuter1"/><feComposite in="shadowBlurOuter1" in2="SourceAlpha" operator="out" result="shadowBlurOuter1"/><feColorMatrix values="0 0 0 0 0 0 0 0 0 0 0 0 0 0 0 0 0 0 0.20666327 0" in="shadowBlurOuter1"/></filter><mask id="e" x="0" y="0" width="786.614" height="805.284" fill="white"><use xlink:href="#b"/></mask></defs><g transform="translate(1 -2)" fill="none" fill-rule="evenodd"><use stroke="#FFFFFF" mask="url(#c)" stroke-width="4" opacity=".581" xlink:href="#a"/><path d="M1155 1865.65V3.536M1192.028 1244.832H.75M1441.916 1034.777H100.426M1368.676 926.497H48.25M1063.862 1450.182L612.25 209.056M390.25 1559.46L841.862 318.336M357 1720.072V13.04" stroke="#FFFFFF" stroke-width="2" stroke-linecap="square" stroke-dasharray="5,5,2,2" opacity=".581"/><use fill="black" filter="url(#d)" xlink:href="#b"/><use stroke="#FEC935" mask="url(#e)" stroke-width="16" fill="#FEC934" xlink:href="#b"/></g></svg>