<?xml version="1.0" encoding="UTF-8" standalone="no"?>
<svg width="960px" height="1531px" viewBox="0 0 960 1531" version="1.1" xmlns="http://www.w3.org/2000/svg" xmlns:xlink="http://www.w3.org/1999/xlink">
    <!-- Generator: Sketch 3.7 (28169) - http://www.bohemiancoding.com/sketch -->
    <title>HUMAN Copy</title>
    <desc>Created with Sketch.</desc>
    <defs></defs>
    <g id="Page-1" stroke="none" stroke-width="1" fill="none" fill-rule="evenodd">
        <g id="Desktop-HD-Copy-4" transform="translate(0.000000, -6660.000000)" fill="#1E48F0">
            <g id="HUMAN-Copy" transform="translate(-87.000000, 6659.000000)">
                <g id="Layer_1">
                    <path d="M767.847973,312.487932 L821.241375,420.681309 L632.45756,357.038146 L767.847973,312.487932 L767.847973,312.487932 Z M863.828969,332.853744 C872.092234,367.221052 876.541684,402.861224 876.541684,441.047122 C876.541684,477.960156 872.727869,512.327464 865.100241,544.785478 L959.17433,544.785478 L959.17433,610.337936 L1046.25643,474.141566 L864.464605,334.126607 L863.828969,332.853744 L863.828969,332.853744 Z M959.17433,609.701504 L959.17433,697.52907 L959.17433,788.538793 L959.17433,917.734414 L762.127251,917.734414 L582.242337,1200.31006 L600.040137,1531.25451 L77.5475601,1143.66764 L211.666701,954.647449 L144.924948,887.822128 L214.209244,818.45108 C183.698729,799.994562 155.09512,777.719455 129.034055,750.989327 C101.066082,722.986335 77.5475601,693.074048 58.478488,661.252466 C19.0690722,595.700008 0,521.873939 0,440.41069 C0,319.48868 43.2232302,215.750324 129.034055,130.468485 C213.573608,44.5502143 316.546598,1.9092949 437.317388,1.9092949 C560.630722,2.54572653 662.968076,45.8230776 747.507629,130.468485 C806.621753,189.020195 845.395533,255.845516 863.828969,331.580881 L439.859931,1.9092949 C439.224296,1.9092949 465.285361,599.518598 465.285361,599.518598 L477.36244,878.275653 C491.346426,876.366358 505.966048,874.457063 520.58567,871.911337 L520.58567,544.149046 L546.0111,544.149046 L864.464605,544.149046 L959.17433,609.701504 Z M581.606701,1200.31006 L497.702784,1331.41498 L476.726804,878.912085 C464.014089,879.548517 450.665739,880.184948 437.317388,880.184948 C420.790859,880.184948 404.899966,878.912085 389.009072,877.00279 C369.94,875.093495 350.870928,872.547769 332.437491,868.092747 L332.437491,1076.20589 L211.666701,955.283881 L581.606701,1200.31006 Z M332.437491,868.092747 C315.910962,864.274157 299.384433,859.182704 284.129175,853.45482 L283.49354,853.45482 L283.49354,854.091251 L211.666701,954.647449 L332.437491,868.092747 Z M332.437491,868.092747 L332.437491,784.083772 L283.49354,852.818388 L332.437491,868.092747 Z M214.209244,818.45108 L332.437491,700.074796 L332.437491,784.083772 L464.649725,600.15503 L214.209244,818.45108 Z M214.209244,818.45108 C236.456495,832.452576 259.339381,843.908345 284.129175,852.818388 L214.209244,818.45108 Z M546.0111,544.149046 L564.444536,863.001294 C584.149244,856.636978 603.853952,848.999798 623.55866,840.726187 L678.858969,808.904605 C703.648763,792.357383 726.531649,772.628002 748.143265,750.989327 L778.65378,720.440608 C786.917045,708.984839 795.180309,698.165501 803.443574,687.346163 L782.467595,674.617531 L807.893024,677.163257 L809.164296,677.163257 C813.613746,668.889646 818.698832,660.616035 823.783918,652.342424 L853.658797,587.426397 C858.743883,573.424901 862.557698,558.786974 865.100241,544.149046 L546.0111,544.149046 Z M802.807938,687.346163 L878.448591,736.987831 L907.052199,692.437616 L908.323471,691.801185 L809.164296,677.799689 C807.893024,679.072552 807.257388,680.345415 807.257388,680.981847 C805.350481,682.25471 804.07921,684.800437 802.807938,687.346163 L802.807938,687.346163 Z M959.17433,609.701504 L908.323471,691.164753 L959.17433,697.52907 L959.17433,609.701504 Z M520.58567,872.547769 L520.58567,917.734414 L566.351443,917.734414 L563.8089,863.001294 L562.537629,863.001294 C549.189278,866.819884 535.205292,870.002042 520.58567,872.547769 L520.58567,872.547769 Z M566.351443,917.734414 L761.491615,917.734414 L877.812955,736.987831 L566.351443,917.734414 Z M959.17433,788.538793 L877.812955,736.987831 L959.17433,788.538793 Z M566.351443,917.734414 L581.606701,1200.31006 L566.351443,917.734414 Z" id="Shape"></path>
                </g>
            </g>
        </g>
    </g>
</svg>